<?xml version="1.0"?>
<svg xmlns="http://www.w3.org/2000/svg" viewBox="0 0 64 64" width="512" height="512"><g id="Coffee"><path d="M51,12a1,1,0,0,1-1-1V9a5.006,5.006,0,0,0-5-5H41a1,1,0,0,1,0-2h4a7.008,7.008,0,0,1,7,7v2A1,1,0,0,1,51,12Z"/><path d="M43,12a1,1,0,0,1-1-1,3,3,0,0,0-3-3H33a1,1,0,0,1,0-2h6a5.006,5.006,0,0,1,5,5A1,1,0,0,1,43,12Z"/><path d="M29,8H27a1,1,0,0,1,0-2h2a1,1,0,0,1,0,2Z"/><path d="M37,4H35a1,1,0,0,1,0-2h2a1,1,0,0,1,0,2Z"/><path d="M18,48a3,3,0,1,0,3,3A3,3,0,0,0,18,48Zm0,4a1,1,0,1,1,1-1A1,1,0,0,1,18,52Z"/><path d="M62,42a3.988,3.988,0,0,0-1.965-3.425A3.952,3.952,0,0,0,61,36a4,4,0,0,0-3.035-3.869L58.9,23H60a1,1,0,0,0,1-1V16a1,1,0,0,0-1-1H30a1,1,0,0,0-1,1v6a1,1,0,0,0,1,1h1.1l.158,1.531L28.431,27.92a2.992,2.992,0,0,1-2.3,1.08H25V27a1,1,0,0,0-1-1H12a1,1,0,0,0-1,1v2H3a1,1,0,0,0,0,2h8V53H3a1,1,0,0,0,0,2h8v2a1,1,0,0,0,1,1H24a1,1,0,0,0,1-1V55h1.667a3.018,3.018,0,0,1,1.8.6L30.333,57a5.03,5.03,0,0,0,3,1h1.354l.318,3.1A1,1,0,0,0,36,62H54A1,1,0,0,0,55,61.1l.321-3.134a3.961,3.961,0,0,0,2.719-6.543,3.974,3.974,0,0,0,1.277-5.664A3.993,3.993,0,0,0,62,42ZM31,17H59v4H31Zm25.892,6-.925,9H34.033l-.927-9ZM23,56H13V28H23Zm13.9,4-.2-2H53.3l-.2,2ZM58,44H48a1,1,0,0,0,0,2h8a2,2,0,0,1,0,4H48a1,1,0,0,0,0,2h7a2,2,0,0,1,0,4H33.333a3.018,3.018,0,0,1-1.8-.6L29.667,54a5.032,5.032,0,0,0-3-1H25V31h1.126a4.983,4.983,0,0,0,3.841-1.8l1.573-1.888.595,5.791a.983.983,0,0,0,.813.865A.443.443,0,0,0,33.13,34H57a2,2,0,0,1,0,4H48a1,1,0,0,0,0,2H58a2,2,0,0,1,0,4Z"/></g></svg>
