<svg height="512" viewBox="0 0 64 64" width="512" xmlns="http://www.w3.org/2000/svg"><g id="Coffee"><path d="m36 61h18l.41-4h-18.82z" fill="#8b5e3c"/><path d="m33.13 33h23.74l1.13-11h-26l.289 2.851.001-.001-.001.001.021.209z" fill="#8b5e3c"/><path d="m58 39h-1a3 3 0 0 0 0-6h-23.87l-.82-7.94-.021-.209-3.089 3.709a4 4 0 0 1 -3.074 1.44h-2.126v24h2.667a4 4 0 0 1 2.4.8l1.866 1.4a4 4 0 0 0 2.4.8h21.667a3 3 0 0 0 0-6h1a3 3 0 0 0 0-6h2a3 3 0 0 0 0-6z" fill="#ffbcab"/><path d="m12 27h12v30h-12z" fill="#006df0"/><circle cx="18" cy="51" fill="#f1f2f2" r="2"/><path d="m60 22v-6h-30v6h2 26z" fill="#c49a6c"/><path d="m3 30h9v24h-9z" fill="#ffcd00"/><path d="m32 22 .289 2.851.001-.001-.001.001.015.149h25.388l.308-3z" fill="#754c29"/><path d="m9 30h3v24h-3z" fill="#cca400"/><path d="m51 12a1 1 0 0 1 -1-1v-2a5.006 5.006 0 0 0 -5-5h-4a1 1 0 0 1 0-2h4a7.008 7.008 0 0 1 7 7v2a1 1 0 0 1 -1 1z"/><path d="m43 12a1 1 0 0 1 -1-1 3 3 0 0 0 -3-3h-6a1 1 0 0 1 0-2h6a5.006 5.006 0 0 1 5 5 1 1 0 0 1 -1 1z"/><path d="m29 8h-2a1 1 0 0 1 0-2h2a1 1 0 0 1 0 2z"/><path d="m37 4h-2a1 1 0 0 1 0-2h2a1 1 0 0 1 0 2z"/><g fill="#231f20"><path d="m18 48a3 3 0 1 0 3 3 3 3 0 0 0 -3-3zm0 4a1 1 0 1 1 1-1 1 1 0 0 1 -1 1z"/><path d="m62 42a3.988 3.988 0 0 0 -1.965-3.425 3.952 3.952 0 0 0 .965-2.575 4 4 0 0 0 -3.035-3.869l.935-9.131h1.1a1 1 0 0 0 1-1v-6a1 1 0 0 0 -1-1h-30a1 1 0 0 0 -1 1v6a1 1 0 0 0 1 1h1.1l.158 1.531-2.827 3.389a2.992 2.992 0 0 1 -2.3 1.08h-1.131v-2a1 1 0 0 0 -1-1h-12a1 1 0 0 0 -1 1v2h-8a1 1 0 0 0 0 2h8v22h-8a1 1 0 0 0 0 2h8v2a1 1 0 0 0 1 1h12a1 1 0 0 0 1-1v-2h1.667a3.018 3.018 0 0 1 1.8.6l1.866 1.4a5.03 5.03 0 0 0 3 1h1.354l.318 3.1a1 1 0 0 0 .995.9h18a1 1 0 0 0 1-.9l.321-3.134a3.961 3.961 0 0 0 2.719-6.543 3.974 3.974 0 0 0 1.277-5.664 3.993 3.993 0 0 0 2.683-3.759zm-31-25h28v4h-28zm25.892 6-.925 9h-21.934l-.927-9zm-33.892 33h-10v-28h10zm13.9 4-.2-2h16.6l-.2 2zm21.1-16h-10a1 1 0 0 0 0 2h8a2 2 0 0 1 0 4h-8a1 1 0 0 0 0 2h7a2 2 0 0 1 0 4h-21.667a3.018 3.018 0 0 1 -1.8-.6l-1.866-1.4a5.032 5.032 0 0 0 -3-1h-1.667v-22h1.126a4.983 4.983 0 0 0 3.841-1.8l1.573-1.888.595 5.791a.983.983 0 0 0 .813.865.443.443 0 0 0 .182.032h23.87a2 2 0 0 1 0 4h-9a1 1 0 0 0 0 2h10a2 2 0 0 1 0 4z"/></g></g></svg>