<svg height="512pt" viewBox="0 -13 512 512" width="512pt" xmlns="http://www.w3.org/2000/svg"><path d="m163.230469 159.082031c-25.09375 5.988281-48.03125 18.820313-66.328125 37.117188-42.640625 42.625-53.171875 107.503906-26.191406 161.46875l18.386718 36.667969 11.425782-34.292969c21.738281-65.1875 69.8125-119.445313 131.894531-148.859375zm0 0" fill="#5bc980"/><path d="m415.097656 196.199219c-18.296875-18.296875-41.234375-31.128907-66.328125-37.117188l-69.183593 52.101563c62.078124 29.414062 110.152343 83.671875 131.894531 148.859375l11.425781 34.289062 18.398438-36.679687c26.964843-53.949219 16.433593-118.828125-26.207032-161.453125zm0 0" fill="#00ab5e"/><path d="m480.097656 33.429688-34.199218 11.398437c-65.398438 21.597656-119.398438 69.601563-148.800782 131.699219l-41.097656-2.097656-41.101562 2.097656c-29.398438-62.097656-83.398438-110.101563-148.800782-131.699219l-34.199218-11.398437 36.601562-18.601563c54-27 118.800781-16.199219 161.398438 26.398437 10.800781 10.800782 19.5 23.101563 26.101562 36.601563 6.597656-13.5 15.300781-25.800781 26.097656-36.601563 42.601563-42.902343 107.402344-53.398437 161.402344-26.398437zm0 0" fill="#5bc980"/><path d="m480.097656 33.429688-34.199218 11.398437c-65.398438 21.597656-119.398438 69.601563-148.800782 131.699219l-41.097656-2.097656v-96.601563c6.597656-13.5 15.300781-25.800781 26.097656-36.601563 42.601563-42.902343 107.402344-53.398437 161.402344-26.398437zm0 0" fill="#00ab5e"/><path d="m512 229.929688-33.402344-16.199219c-60.898437-30.902344-132.296875-35.101563-196.199218-12.601563-9 3-17.699219 6.597656-26.097657 10.5h-.300781c-8.699219-4.199218-17.402344-7.800781-26.398438-10.800781-64.203124-21.898437-135.300781-17.699219-196.199218 12.902344l-33.402344 16.199219 12.898438-39c6.601562-19.203126 17.800781-36.300782 31.300781-51 26.402343-28.5 63.902343-44.703126 102.601562-44.703126 43.199219 0 83.398438 20.402344 109.199219 53.101563 25.800781-32.699219 65.699219-53.101563 109.199219-53.101563 48.898437 0 95.097656 26.101563 120 68.101563 5.398437 8.699219 10.601562 18 13.898437 27.601563zm0 0" fill="#7fe881"/><path d="m512 229.929688-33.402344-16.199219c-60.898437-30.902344-132.296875-35.101563-196.199218-12.601563-9 3-17.699219 6.597656-26.097657 10.5h-.300781v-63.300781c25.800781-32.699219 65.699219-53.101563 109.199219-53.101563 48.902343 0 95.101562 26.101563 120 68.101563 5.402343 8.699219 10.601562 18 13.902343 27.601563zm0 0" fill="#5bc980"/><path d="m301 155.226562v60l-45 28.800782-1.800781 1.199218-43.199219-30v-60zm0 0" fill="#725d57"/><path d="m301 155.226562v60l-45 28.800782v-88.800782zm0 0" fill="#53433f"/><path d="m301 215.226562v50.101563c0 3.300781-.300781 6.601563-.300781 9.898437l-44.699219 28.203126-2.699219 1.796874-45.601562-30c2.101562-19.800781 3.300781-39.296874 3.300781-59.097656v-.902344zm0 0" fill="#53433f"/><path d="m256 215.226562h45v50.101563c0 3.300781-.300781 6.601563-.300781 9.898437l-44.699219 28.203126zm0 0" fill="#3e322e"/><path d="m300.699219 275.226562c-.300781 20.101563-1.5 40.199219-3.597657 60l-41.101562 23.699219-10.800781 6.300781-47.398438-30c4.199219-19.800781 7.796875-39.898437 9.898438-60zm0 0" fill="#725d57"/><path d="m256 275.226562h44.699219c-.300781 20.101563-1.5 40.199219-3.597657 60l-41.101562 23.699219zm0 0" fill="#53433f"/><path d="m297.101562 335.226562c-1.800781 20.101563-4.503906 40.199219-8.101562 60l-33 17.101563-24.902344 12.898437-50.097656-30c6.597656-19.800781 12.300781-39.597656 16.800781-60zm0 0" fill="#53433f"/><path d="m256 335.226562h41.101562c-1.800781 20.101563-4.503906 40.199219-8.101562 60l-33 17.101563zm0 0" fill="#3e322e"/><path d="m289 395.226562c-2.699219 13.800782-5.699219 27.601563-9 41.101563l-9.601562 37.5-14.398438-1.203125-103.5-9c11.101562-22.199219 20.398438-45 28.5-68.398438zm0 0" fill="#725d57"/><path d="m256 395.226562h33c-2.699219 13.800782-5.699219 27.601563-9 41.101563l-9.601562 37.5-14.398438-1.203125zm0 0" fill="#53433f"/><path d="m0 455.226562h512v30h-512zm0 0" fill="#725d57"/><path d="m256 455.226562h256v30h-256zm0 0" fill="#53433f"/></svg>