<?xml version="1.0" encoding="iso-8859-1"?>
<!-- Generator: Adobe Illustrator 19.0.0, SVG Export Plug-In . SVG Version: 6.00 Build 0)  -->
<svg version="1.1" id="Capa_1" xmlns="http://www.w3.org/2000/svg" xmlns:xlink="http://www.w3.org/1999/xlink" x="0px" y="0px"
	 viewBox="0 0 512 512" style="enable-background:new 0 0 512 512;" xml:space="preserve">
<g>
	<g>
		<path d="M123.6,130.172H56.186c-4.155,0-7.522,3.368-7.522,7.522c0,4.154,3.367,7.522,7.522,7.522H123.6
			c4.155,0,7.522-3.368,7.522-7.522C131.122,133.54,127.754,130.172,123.6,130.172z"/>
	</g>
</g>
<g>
	<g>
		<path d="M189.85,130.173h-33.706c-4.155,0-7.523,3.368-7.523,7.522c0,4.154,3.368,7.522,7.523,7.522h33.706
			c4.155,0,7.522-3.368,7.522-7.522C197.372,133.541,194.005,130.173,189.85,130.173z"/>
	</g>
</g>
<g>
	<g>
		<path d="M339.786,130.172H223.557c-4.155,0-7.522,3.368-7.522,7.522c0,4.154,3.368,7.522,7.522,7.522h116.229
			c4.155,0,7.522-3.368,7.522-7.522C347.308,133.54,343.941,130.172,339.786,130.172z"/>
	</g>
</g>
<g>
	<g>
		<path d="M85.777,181.588H56.186c-4.155,0-7.522,3.368-7.522,7.522s3.367,7.522,7.522,7.522h29.591
			c4.155,0,7.522-3.368,7.522-7.522C93.299,184.955,89.932,181.588,85.777,181.588z"/>
	</g>
</g>
<g>
	<g>
		<path d="M262.856,181.588h-147.78c-4.155-0.001-7.523,3.367-7.523,7.522c0,4.154,3.368,7.522,7.522,7.522h147.781
			c4.155,0,7.522-3.368,7.522-7.522C270.378,184.955,267.011,181.588,262.856,181.588z"/>
	</g>
</g>
<g>
	<g>
		<path d="M339.786,181.587H296.39c-4.155,0-7.522,3.368-7.522,7.522s3.367,7.522,7.522,7.522h43.396
			c4.155,0,7.522-3.368,7.522-7.522C347.309,184.955,343.941,181.587,339.786,181.587z"/>
	</g>
</g>
<g>
	<g>
		<path d="M133.115,233.002H56.186c-4.155,0-7.522,3.368-7.522,7.523c0,4.154,3.367,7.522,7.522,7.522h76.929
			c4.155,0,7.522-3.368,7.522-7.522C140.637,236.37,137.27,233.002,133.115,233.002z"/>
	</g>
</g>
<g>
	<g>
		<path d="M223.557,233.002H162.73c-4.155,0-7.522,3.368-7.522,7.523c0,4.154,3.368,7.522,7.522,7.522h60.827
			c4.155,0,7.522-3.368,7.522-7.522C231.08,236.37,227.712,233.002,223.557,233.002z"/>
	</g>
</g>
<g>
	<g>
		<path d="M339.786,233.002h-86.397c-4.155,0-7.522,3.368-7.522,7.523c0,4.154,3.368,7.522,7.522,7.522h86.397
			c4.155,0,7.522-3.368,7.522-7.522C347.309,236.37,343.941,233.002,339.786,233.002z"/>
	</g>
</g>
<g>
	<g>
		<path d="M115.076,284.418h-58.89c-4.155,0-7.522,3.368-7.522,7.522s3.367,7.522,7.522,7.522h58.89
			c4.155,0,7.522-3.368,7.522-7.522S119.231,284.418,115.076,284.418z"/>
	</g>
</g>
<g>
	<g>
		<path d="M253.389,284.417H145.295c-4.155,0-7.522,3.368-7.522,7.522c0,4.155,3.367,7.522,7.522,7.522h108.094
			c4.155,0,7.522-3.368,7.522-7.522C260.912,287.785,257.544,284.417,253.389,284.417z"/>
	</g>
</g>
<g>
	<g>
		<path d="M339.786,284.417h-58.114c-4.155,0-7.522,3.368-7.522,7.522c0,4.155,3.367,7.522,7.522,7.522h58.114
			c4.155,0,7.522-3.368,7.522-7.522C347.309,287.785,343.941,284.417,339.786,284.417z"/>
	</g>
</g>
<g>
	<g>
		<path d="M162.73,335.833H56.186c-4.155,0-7.522,3.368-7.522,7.522s3.367,7.522,7.522,7.522H162.73
			c4.155,0,7.522-3.368,7.522-7.522S166.885,335.833,162.73,335.833z"/>
	</g>
</g>
<g>
	<g>
		<path d="M269.662,335.833h-76.519c-4.155-0.001-7.522,3.367-7.522,7.522c0,4.154,3.368,7.522,7.522,7.522h76.519
			c4.155,0,7.522-3.368,7.522-7.522S273.817,335.833,269.662,335.833z"/>
	</g>
</g>
<g>
	<g>
		<path d="M339.786,335.832h-38.743c-4.155,0-7.522,3.368-7.522,7.522s3.367,7.522,7.522,7.522h38.743
			c4.155,0,7.522-3.368,7.522-7.522S343.941,335.832,339.786,335.832z"/>
	</g>
</g>
<g>
	<g>
		<path d="M76.332,387.248H56.186c-4.155,0-7.522,3.368-7.522,7.522s3.367,7.522,7.522,7.522h20.146
			c4.155,0,7.522-3.368,7.522-7.522S80.487,387.248,76.332,387.248z"/>
	</g>
</g>
<g>
	<g>
		<path d="M231.402,387.248H109.458c-4.155,0-7.522,3.368-7.522,7.522s3.368,7.522,7.522,7.522h121.944
			c4.155,0,7.522-3.368,7.522-7.522C238.924,390.616,235.557,387.248,231.402,387.248z"/>
	</g>
</g>
<g>
	<g>
		<path d="M339.786,387.247h-79.424c-4.155,0-7.522,3.368-7.522,7.522s3.368,7.522,7.522,7.522h79.424
			c4.155,0,7.522-3.368,7.522-7.522S343.941,387.247,339.786,387.247z"/>
	</g>
</g>
<g>
	<g>
		<path d="M123.6,438.663H56.186c-4.155,0-7.522,3.368-7.522,7.522s3.367,7.522,7.522,7.522H123.6c4.155,0,7.522-3.368,7.522-7.522
			C131.122,442.03,127.754,438.663,123.6,438.663z"/>
	</g>
</g>
<g>
	<g>
		<path d="M253.39,438.663h-99.673c-4.155,0-7.522,3.368-7.522,7.522c-0.001,4.154,3.367,7.522,7.522,7.522h99.673
			c4.155,0,7.522-3.368,7.522-7.522C260.912,442.03,257.545,438.663,253.39,438.663z"/>
	</g>
</g>
<g>
	<g>
		<path d="M339.786,438.662h-58.114c-4.155,0-7.522,3.368-7.522,7.522s3.367,7.522,7.522,7.522h58.114
			c4.155,0,7.522-3.368,7.522-7.522C347.309,442.03,343.941,438.662,339.786,438.662z"/>
	</g>
</g>
<g>
	<g>
		<path d="M387.692,398.425c-4.155,0-7.522,3.368-7.522,7.522v85.094c0,3.261-2.653,5.914-5.914,5.914H21.717
			c-3.261,0-5.914-2.653-5.914-5.914V20.959c0-3.261,2.653-5.914,5.914-5.914h35.938V34.74
			C45.79,38.039,37.053,48.931,37.053,61.833c0,15.507,12.617,28.124,28.124,28.124S93.3,77.341,93.3,61.833
			c0-12.902-8.736-23.794-20.601-27.093V15.045h73.495V34.74c-11.865,3.299-20.602,14.191-20.602,27.093
			c0,15.507,12.617,28.124,28.124,28.124s28.123-12.616,28.123-28.124c0-12.902-8.736-23.794-20.601-27.093V15.045h73.495V34.74
			c-11.865,3.299-20.602,14.191-20.602,27.093c0,15.507,12.617,28.124,28.124,28.124s28.123-12.616,28.123-28.124
			c0-12.902-8.736-23.794-20.601-27.093V15.045h73.494V34.74c-11.865,3.299-20.601,14.191-20.601,27.093
			c0,15.507,12.616,28.124,28.123,28.124c15.507,0,28.124-12.616,28.124-28.124c0-12.902-8.736-23.794-20.602-27.093V15.045h35.938
			c3.261,0,5.914,2.653,5.914,5.914v338.35c0,4.154,3.367,7.522,7.522,7.522c4.155,0,7.522-3.368,7.522-7.522V20.959
			C395.214,9.402,385.812,0,374.255,0H21.717C10.16,0,0.758,9.402,0.758,20.959v470.083C0.758,502.598,10.16,512,21.717,512h352.538
			c11.557,0,20.959-9.402,20.959-20.959v-85.094C395.214,401.793,391.847,398.425,387.692,398.425z M343.875,61.834
			c0,7.211-5.867,13.079-13.079,13.079c-7.211,0-13.078-5.867-13.078-13.079c0-7.212,5.867-13.078,13.078-13.078
			C338.007,48.755,343.875,54.622,343.875,61.834z M255.335,61.834c0,7.211-5.867,13.079-13.078,13.079
			c-7.212,0-13.079-5.867-13.079-13.079c0-7.212,5.867-13.078,13.079-13.078C249.468,48.755,255.335,54.622,255.335,61.834z
			 M166.795,61.834c0,7.211-5.867,13.079-13.078,13.079c-7.212,0-13.079-5.867-13.079-13.079c0-7.212,5.867-13.078,13.079-13.078
			C160.928,48.755,166.795,54.622,166.795,61.834z M78.255,61.834c0,7.211-5.867,13.079-13.078,13.079
			c-7.212,0-13.079-5.867-13.079-13.079c0-7.212,5.867-13.078,13.079-13.078C72.388,48.755,78.255,54.622,78.255,61.834z"/>
	</g>
</g>
<g>
	<g>
		<path d="M475.624,2.389h-23.067c-19.64,0-35.618,15.978-35.618,35.618v47.069v49.561c0,4.155,3.367,7.522,7.522,7.522
			c4.155,0,7.522-3.368,7.522-7.522V92.599h64.213V432.87h-64.213V182.113c0-4.154-3.367-7.522-7.522-7.522
			c-4.155,0-7.522,3.368-7.522,7.522v258.28c0,0.014,0.002,0.028,0.002,0.042c0,0.064,0.008,0.128,0.01,0.193
			c0.007,0.24,0.024,0.477,0.054,0.711c0.011,0.088,0.026,0.175,0.04,0.263c0.037,0.228,0.084,0.452,0.141,0.673
			c0.018,0.07,0.034,0.139,0.054,0.209c0.171,0.591,0.413,1.151,0.715,1.673c0.017,0.029,0.028,0.06,0.045,0.089l35.321,59.249
			c2.284,3.831,6.311,6.118,10.771,6.117c4.459,0,8.485-2.288,10.767-6.117l35.322-59.249c0.017-0.029,0.029-0.06,0.045-0.089
			c0.302-0.522,0.544-1.081,0.715-1.673c0.02-0.069,0.036-0.139,0.054-0.209c0.057-0.221,0.104-0.445,0.141-0.673
			c0.014-0.088,0.029-0.175,0.04-0.263c0.029-0.233,0.046-0.469,0.054-0.708c0.002-0.065,0.01-0.13,0.01-0.195
			c0-0.014,0.002-0.027,0.002-0.041V85.077V38.008C511.242,18.368,495.263,2.389,475.624,2.389z M464.09,492.176l-26.386-44.261
			h52.773L464.09,492.176z M496.197,77.554h-64.213V38.008c0-11.344,9.229-20.573,20.573-20.573h23.067
			c11.344,0,20.573,9.229,20.573,20.573V77.554z"/>
	</g>
</g>
<g>
</g>
<g>
</g>
<g>
</g>
<g>
</g>
<g>
</g>
<g>
</g>
<g>
</g>
<g>
</g>
<g>
</g>
<g>
</g>
<g>
</g>
<g>
</g>
<g>
</g>
<g>
</g>
<g>
</g>
</svg>
