<?xml version="1.0" encoding="iso-8859-1"?>
<!-- Generator: Adobe Illustrator 19.0.0, SVG Export Plug-In . SVG Version: 6.00 Build 0)  -->
<svg version="1.1" id="Capa_1" xmlns="http://www.w3.org/2000/svg" xmlns:xlink="http://www.w3.org/1999/xlink" x="0px" y="0px"
	 viewBox="0 0 512 512" style="enable-background:new 0 0 512 512;" xml:space="preserve">
<path style="fill:#E2EEFD;" d="M374.256,504.477H21.717c-7.42,0-13.436-6.016-13.436-13.436V20.959
	c0-7.42,6.015-13.436,13.436-13.436h352.539c7.42,0,13.436,6.015,13.436,13.436v470.083
	C387.692,498.462,381.676,504.477,374.256,504.477z"/>
<path style="fill:#C7DCF2;" d="M374.256,504.477h-10.579V7.523h10.579c7.42,0,13.436,6.015,13.436,13.436v470.083
	C387.692,498.462,381.676,504.477,374.256,504.477z"/>
<g>
	<circle style="fill:#40CAD2;" cx="65.18" cy="61.834" r="20.601"/>
	<circle style="fill:#40CAD2;" cx="153.72" cy="61.834" r="20.601"/>
	<circle style="fill:#40CAD2;" cx="242.26" cy="61.834" r="20.601"/>
	<circle style="fill:#40CAD2;" cx="330.8" cy="61.834" r="20.601"/>
</g>
<g>
	<path style="fill:#2FB2B2;" d="M85.782,61.83c0,11.384-9.228,20.602-20.602,20.602c-8.114,0-15.135-4.684-18.495-11.504
		c2.146,0.772,4.463,1.184,6.88,1.184c11.374,0,20.602-9.218,20.602-20.602c0-3.27-0.762-6.359-2.126-9.107
		C80.044,45.23,85.782,52.863,85.782,61.83z"/>
	<path style="fill:#2FB2B2;" d="M174.316,61.83c0,11.384-9.218,20.602-20.602,20.602c-8.114,0-15.125-4.684-18.485-11.504
		c2.146,0.772,4.463,1.184,6.88,1.184c11.374,0,20.602-9.218,20.602-20.602c0-3.27-0.762-6.359-2.126-9.107
		C168.589,45.23,174.316,52.863,174.316,61.83z"/>
	<path style="fill:#2FB2B2;" d="M262.86,61.83c0,11.384-9.228,20.602-20.602,20.602c-8.114,0-15.135-4.684-18.495-11.504
		c2.156,0.772,4.463,1.184,6.881,1.184c11.384,0,20.602-9.218,20.602-20.602c0-3.27-0.762-6.359-2.116-9.097
		C257.133,45.23,262.86,52.863,262.86,61.83z"/>
	<path style="fill:#2FB2B2;" d="M351.395,61.83c0,11.384-9.217,20.602-20.601,20.602c-8.114,0-15.125-4.684-18.485-11.504
		c2.146,0.772,4.463,1.184,6.88,1.184c11.374,0,20.602-9.218,20.602-20.602c0-3.27-0.762-6.359-2.126-9.097
		C345.668,45.23,351.395,52.863,351.395,61.83z"/>
</g>
<path d="M123.6,130.172H56.186c-4.155,0-7.522,3.368-7.522,7.522s3.367,7.522,7.522,7.522H123.6c4.155,0,7.522-3.368,7.522-7.522
	S127.754,130.172,123.6,130.172z"/>
<path d="M189.85,145.217c4.155,0,7.522-3.368,7.522-7.522s-3.367-7.522-7.522-7.522h-33.706c-4.155,0-7.523,3.368-7.523,7.522
	s3.368,7.522,7.523,7.522H189.85z"/>
<path d="M339.786,130.172H223.557c-4.155,0-7.522,3.368-7.522,7.522s3.368,7.522,7.522,7.522h116.229
	c4.155,0,7.522-3.368,7.522-7.522S343.941,130.172,339.786,130.172z"/>
<path d="M56.186,196.632h29.591c4.155,0,7.522-3.368,7.522-7.522c0-4.155-3.367-7.522-7.522-7.522H56.186
	c-4.155,0-7.522,3.368-7.522,7.522S52.031,196.632,56.186,196.632z"/>
<path d="M107.553,189.11c0,4.154,3.368,7.522,7.522,7.522h147.781c4.155,0,7.522-3.368,7.522-7.522c0-4.155-3.367-7.522-7.522-7.522
	h-147.78C110.921,181.587,107.553,184.955,107.553,189.11z"/>
<path d="M339.786,181.587H296.39c-4.155,0-7.522,3.368-7.522,7.522s3.367,7.522,7.522,7.522h43.396c4.155,0,7.522-3.368,7.522-7.522
	C347.309,184.955,343.941,181.587,339.786,181.587z"/>
<path d="M56.186,248.047h76.929c4.155,0,7.522-3.368,7.522-7.522c0-4.155-3.367-7.523-7.522-7.523H56.186
	c-4.155,0-7.522,3.368-7.522,7.523C48.664,244.679,52.031,248.047,56.186,248.047z"/>
<path d="M223.557,233.002H162.73c-4.155,0-7.522,3.368-7.522,7.523c0,4.154,3.368,7.522,7.522,7.522h60.827
	c4.155,0,7.522-3.368,7.522-7.522C231.08,236.37,227.712,233.002,223.557,233.002z"/>
<path d="M339.786,233.002h-86.397c-4.155,0-7.522,3.368-7.522,7.523c0,4.154,3.368,7.522,7.522,7.522h86.397
	c4.155,0,7.522-3.368,7.522-7.522C347.309,236.37,343.941,233.002,339.786,233.002z"/>
<path d="M56.186,299.462h58.89c4.155,0,7.522-3.368,7.522-7.522s-3.367-7.522-7.522-7.522h-58.89c-4.155,0-7.522,3.368-7.522,7.522
	C48.664,296.094,52.031,299.462,56.186,299.462z"/>
<path d="M253.389,284.417H145.295c-4.155,0-7.522,3.368-7.522,7.522c0,4.155,3.367,7.522,7.522,7.522h108.094
	c4.155,0,7.522-3.368,7.522-7.522C260.912,287.785,257.544,284.417,253.389,284.417z"/>
<path d="M339.786,284.417h-58.114c-4.155,0-7.522,3.368-7.522,7.522c0,4.155,3.367,7.522,7.522,7.522h58.114
	c4.155,0,7.522-3.368,7.522-7.522C347.309,287.785,343.941,284.417,339.786,284.417z"/>
<path d="M56.186,350.877H162.73c4.155,0,7.522-3.368,7.522-7.522s-3.367-7.522-7.522-7.522H56.186c-4.155,0-7.522,3.368-7.522,7.522
	S52.031,350.877,56.186,350.877z"/>
<path d="M185.621,343.355c0,4.154,3.368,7.522,7.522,7.522h76.519c4.155,0,7.522-3.368,7.522-7.522s-3.367-7.522-7.522-7.522
	h-76.519C188.988,335.832,185.621,339.2,185.621,343.355z"/>
<path d="M339.786,335.832h-38.743c-4.155,0-7.522,3.368-7.522,7.522s3.367,7.522,7.522,7.522h38.743
	c4.155,0,7.522-3.368,7.522-7.522S343.941,335.832,339.786,335.832z"/>
<path d="M56.186,402.292h20.146c4.155,0,7.522-3.368,7.522-7.522s-3.367-7.522-7.522-7.522H56.186c-4.155,0-7.522,3.368-7.522,7.522
	S52.031,402.292,56.186,402.292z"/>
<path d="M238.924,394.77c0-4.154-3.367-7.522-7.522-7.522H109.458c-4.155,0-7.522,3.368-7.522,7.522s3.368,7.522,7.522,7.522
	h121.944C235.557,402.292,238.924,398.924,238.924,394.77z"/>
<path d="M339.786,387.247h-79.424c-4.155,0-7.522,3.368-7.522,7.522s3.368,7.522,7.522,7.522h79.424
	c4.155,0,7.522-3.368,7.522-7.522S343.941,387.247,339.786,387.247z"/>
<path d="M56.186,453.707H123.6c4.155,0,7.522-3.368,7.522-7.522c0-4.155-3.368-7.522-7.522-7.522H56.186
	c-4.155,0-7.522,3.368-7.522,7.522S52.031,453.707,56.186,453.707z"/>
<path d="M153.717,453.707h99.673c4.155,0,7.522-3.368,7.522-7.522c0-4.155-3.367-7.522-7.522-7.522h-99.673
	c-4.155,0-7.522,3.368-7.522,7.522C146.194,450.339,149.562,453.707,153.717,453.707z"/>
<path d="M339.786,438.662h-58.114c-4.155,0-7.522,3.368-7.522,7.522s3.367,7.522,7.522,7.522h58.114
	c4.155,0,7.522-3.368,7.522-7.522C347.309,442.03,343.941,438.662,339.786,438.662z"/>
<path style="fill:#ED3124;" d="M475.623,9.912h-23.067c-15.517,0-28.095,12.579-28.095,28.095v47.069h79.258V38.008
	C503.719,22.491,491.14,9.912,475.623,9.912z"/>
<path style="fill:#D8231E;" d="M503.72,38.011v47.071h-25.396V38.011c0-15.125-11.956-27.472-26.93-28.074
	c0.381-0.02,0.772-0.03,1.163-0.03h23.069C491.142,9.907,503.72,22.495,503.72,38.011z"/>
<path style="fill:#FFD800;" d="M464.09,440.392h-39.629l35.321,59.249c1.945,3.263,6.67,3.263,8.615,0l35.321-59.249H464.09z"/>
<path style="fill:#E8C207;" d="M503.72,440.393l-35.321,59.252c-1.945,3.263-6.67,3.263-8.615,0l-9.594-16.094l25.737-43.159
	L503.72,440.393L503.72,440.393z"/>
<rect x="424.46" y="85.08" style="fill:#40CAD2;" width="79.26" height="355.31"/>
<rect x="477.56" y="85.08" style="fill:#2FB2B2;" width="26.16" height="355.31"/>
<path d="M374.255,0H21.717C10.16,0,0.758,9.402,0.758,20.959v470.083C0.758,502.598,10.16,512,21.717,512h352.538
	c11.557,0,20.959-9.402,20.959-20.959v-85.094c0-4.154-3.367-7.522-7.522-7.522s-7.522,3.368-7.522,7.522v85.094
	c0,3.261-2.653,5.914-5.914,5.914H21.717c-3.261,0-5.914-2.653-5.914-5.914V20.959c0-3.261,2.653-5.914,5.914-5.914h35.938V34.74
	C45.79,38.039,37.053,48.931,37.053,61.833c0,15.507,12.617,28.124,28.124,28.124S93.3,77.341,93.3,61.833
	c0-12.902-8.736-23.794-20.601-27.093V15.045h73.495V34.74c-11.865,3.299-20.602,14.191-20.602,27.093
	c0,15.507,12.617,28.124,28.124,28.124s28.123-12.616,28.123-28.124c0-12.902-8.736-23.794-20.601-27.093V15.045h73.495V34.74
	c-11.865,3.299-20.602,14.191-20.602,27.093c0,15.507,12.617,28.124,28.124,28.124s28.123-12.616,28.123-28.124
	c0-12.902-8.736-23.794-20.601-27.093V15.045h73.494V34.74c-11.865,3.299-20.601,14.191-20.601,27.093
	c0,15.507,12.616,28.124,28.123,28.124s28.124-12.616,28.124-28.124c0-12.902-8.736-23.794-20.602-27.093V15.045h35.938
	c3.261,0,5.914,2.653,5.914,5.914v338.35c0,4.154,3.367,7.522,7.522,7.522s7.522-3.368,7.522-7.522V20.959
	C395.214,9.402,385.812,0,374.255,0z M78.255,61.834c0,7.211-5.867,13.079-13.078,13.079c-7.212,0-13.079-5.867-13.079-13.079
	s5.867-13.078,13.079-13.078C72.388,48.755,78.255,54.622,78.255,61.834z M166.795,61.834c0,7.211-5.867,13.079-13.078,13.079
	c-7.212,0-13.079-5.867-13.079-13.079s5.867-13.078,13.079-13.078C160.928,48.755,166.795,54.622,166.795,61.834z M255.335,61.834
	c0,7.211-5.867,13.079-13.078,13.079c-7.212,0-13.079-5.867-13.079-13.079s5.867-13.078,13.079-13.078
	C249.468,48.755,255.335,54.622,255.335,61.834z M343.875,61.834c0,7.211-5.867,13.079-13.079,13.079
	c-7.211,0-13.078-5.867-13.078-13.079s5.867-13.078,13.078-13.078C338.007,48.755,343.875,54.622,343.875,61.834z"/>
<path d="M475.624,2.389h-23.067c-19.64,0-35.618,15.978-35.618,35.618v47.069v49.561c0,4.155,3.367,7.522,7.522,7.522
	s7.522-3.368,7.522-7.522V92.599h64.213V432.87h-64.213V182.113c0-4.154-3.367-7.522-7.522-7.522s-7.522,3.368-7.522,7.522v258.28
	c0,0.014,0.002,0.028,0.002,0.042c0,0.064,0.008,0.128,0.01,0.193c0.007,0.24,0.024,0.477,0.054,0.711
	c0.011,0.088,0.026,0.175,0.04,0.263c0.037,0.228,0.084,0.452,0.141,0.673c0.018,0.07,0.034,0.139,0.054,0.209
	c0.171,0.591,0.413,1.151,0.715,1.673c0.017,0.029,0.028,0.06,0.045,0.089l35.321,59.249c2.284,3.831,6.311,6.118,10.771,6.117
	c4.459,0,8.485-2.288,10.767-6.117l35.322-59.249c0.017-0.029,0.029-0.06,0.045-0.089c0.302-0.522,0.544-1.081,0.715-1.673
	c0.02-0.069,0.036-0.139,0.054-0.209c0.057-0.221,0.104-0.445,0.141-0.673c0.014-0.088,0.029-0.175,0.04-0.263
	c0.029-0.233,0.046-0.469,0.054-0.708c0.002-0.065,0.01-0.13,0.01-0.195c0-0.014,0.002-0.027,0.002-0.041V85.077V38.008
	C511.242,18.368,495.263,2.389,475.624,2.389z M464.09,492.176l-26.386-44.261h52.773L464.09,492.176z M496.197,77.554h-64.213
	V38.008c0-11.344,9.229-20.573,20.573-20.573h23.067c11.344,0,20.573,9.229,20.573,20.573V77.554z"/>
<g>
</g>
<g>
</g>
<g>
</g>
<g>
</g>
<g>
</g>
<g>
</g>
<g>
</g>
<g>
</g>
<g>
</g>
<g>
</g>
<g>
</g>
<g>
</g>
<g>
</g>
<g>
</g>
<g>
</g>
</svg>
