<?xml version="1.0" encoding="iso-8859-1"?>
<!-- Generator: Adobe Illustrator 19.0.0, SVG Export Plug-In . SVG Version: 6.00 Build 0)  -->
<svg version="1.1" id="Capa_1" xmlns="http://www.w3.org/2000/svg" xmlns:xlink="http://www.w3.org/1999/xlink" x="0px" y="0px"
	 viewBox="0 0 512.002 512.002" style="enable-background:new 0 0 512.002 512.002;" xml:space="preserve">
<g>
	<g>
		<path d="M351.001,7.5c-1.029,0-2.05,0.069-3.058,0.209C343.736,2.895,337.589,0,331.001,0c-3.499,0-6.915,0.816-10,2.354
			C317.916,0.816,314.5,0,311.001,0c-6.589,0-12.735,2.894-16.942,7.709c-1.008-0.14-2.028-0.209-3.058-0.209
			c-12.407,0-22.5,10.094-22.5,22.5v67.5c0,28.948,23.551,52.5,52.5,52.5c28.949,0,52.5-23.552,52.5-52.5V30
			C373.501,17.594,363.408,7.5,351.001,7.5z M321.001,135c-20.678,0-37.5-16.822-37.5-37.5s16.822-37.5,37.5-37.5
			c20.678,0,37.5,16.822,37.5,37.5S341.679,135,321.001,135z M358.502,60.808C348.964,51.063,335.68,45,321.001,45
			c-14.679,0-27.963,6.063-37.5,15.808V30c0-4.136,3.364-7.5,7.5-7.5c1.08,0,2.138,0.237,3.146,0.705
			c1.822,0.846,3.907,0.926,5.789,0.221c1.881-0.704,3.401-2.134,4.219-3.969C305.363,16.75,308.05,15,311.002,15
			c1.835,0,3.608,0.684,4.993,1.926c2.849,2.555,7.165,2.555,10.014,0c1.385-1.242,3.158-1.926,4.993-1.926
			c2.952,0,5.64,1.75,6.847,4.457c0.818,1.835,2.338,3.265,4.219,3.969c1.882,0.705,3.966,0.625,5.789-0.221
			c1.008-0.468,2.066-0.705,3.145-0.705c4.136,0,7.5,3.364,7.5,7.5V60.808z"/>
	</g>
</g>
<g>
	<g>
		<path d="M366.001,390c4.142,0,7.5-3.357,7.5-7.5v-82.975c28.172-3.688,50-27.832,50-56.995c0-29.483-22.308-53.841-50.93-57.113
			c-3.082-11.55-13.51-20.125-25.953-20.401c-0.139-0.007-0.278-0.012-0.417-0.01c-0.067,0-0.134-0.005-0.201-0.005h-49.74
			c-0.033,0-0.066,0-0.099,0h-0.16c-12.574,0-23.197,8.487-26.46,20.03h-48.54c-20.875,0-38.27-15.132-41.824-35h66.824
			c4.142,0,7.5-3.357,7.5-7.5s-3.358-7.5-7.5-7.5h-7.5v-7.5c0-34.684-26.298-63.329-60-67.073V52.53c0-4.143-3.358-7.5-7.5-7.5
			c-4.142,0-7.5,3.357-7.5,7.5v7.927c-33.702,3.744-60,32.389-60,67.073v7.5h-7.5c-4.142,0-7.5,3.357-7.5,7.5s3.358,7.5,7.5,7.5
			h68.005c3.689,28.173,27.833,50,56.995,50h47.5V382.5c0,4.143,3.358,7.5,7.5,7.5h7.25v99.095l-24.872,8.29
			c-3.93,1.31-6.053,5.558-4.744,9.487c1.048,3.143,3.974,5.13,7.114,5.13c0.786,0,1.586-0.125,2.373-0.387l30-10
			c3.062-1.021,5.128-3.887,5.128-7.115V390h45.5v104.5c0,3.229,2.066,6.095,5.128,7.115l30,10c0.787,0.262,1.586,0.387,2.373,0.387
			c3.14,0,6.066-1.987,7.114-5.13c1.31-3.93-0.814-8.178-4.744-9.487l-24.872-8.29V390H366.001z M373.501,200.707
			c19.868,3.554,35,20.949,35,41.824s-15.132,38.27-35,41.824V200.707z M118.501,135.03v-7.5c0-28.948,23.551-52.5,52.5-52.5
			c28.949,0,52.5,23.552,52.5,52.5v7.5H118.501z M333.443,180l-12.376,22.057L308.935,180H333.443z M283.501,192.5
			c0-5.55,3.638-10.26,8.652-11.888l21.348,38.814v65.604h-30V192.5z M358.501,375h-75v-74.97h75V375z M358.501,285.03h-30v-65.57
			l21.721-38.711c4.818,1.737,8.279,6.341,8.279,11.751V285.03z"/>
	</g>
</g>
<g>
</g>
<g>
</g>
<g>
</g>
<g>
</g>
<g>
</g>
<g>
</g>
<g>
</g>
<g>
</g>
<g>
</g>
<g>
</g>
<g>
</g>
<g>
</g>
<g>
</g>
<g>
</g>
<g>
</g>
</svg>
