<?xml version="1.0" encoding="iso-8859-1"?>
<!-- Generator: Adobe Illustrator 19.0.0, SVG Export Plug-In . SVG Version: 6.00 Build 0)  -->
<svg version="1.1" id="Capa_1" xmlns="http://www.w3.org/2000/svg" xmlns:xlink="http://www.w3.org/1999/xlink" x="0px" y="0px"
	 viewBox="0 0 512.001 512.001" style="enable-background:new 0 0 512.001 512.001;" xml:space="preserve">
<path style="fill:#B3B3B3;" d="M171,67.561l30,75h30v-15C231,94.424,204.137,67.561,171,67.561z"/>
<path style="fill:#CCCCCC;" d="M171,67.561c-33.137,0-60,26.863-60,60v15h90v-15C201,94.424,187.569,67.561,171,67.561z"/>
<rect x="295.999" y="172.53" style="fill:#FFFFFF;" width="50" height="74.979"/>
<path style="fill:#4F4F4F;" d="M346,172.53l-25,44.989h-30l30,60.011h45v-85C366,181.485,357.046,172.53,346,172.53z"/>
<path style="fill:#696969;" d="M296,172.53c-11.046,0-20,8.954-20,20v85h45v-60.011L296,172.53z"/>
<circle style="fill:#C27749;" cx="320.999" cy="30" r="22.5"/>
<path style="fill:#FFB4A9;" d="M321,52.5v90c24.853,0,45-20.147,45-45S345.853,52.5,321,52.5z"/>
<path style="fill:#FFD9D4;" d="M336,97.5c0-24.853-6.716-45-15-45c-24.853,0-45,20.147-45,45s20.147,45,45,45
	C329.284,142.5,336,122.352,336,97.5z"/>
<polygon style="fill:#353535;" points="351,397.53 381,397.53 381,352.5 336,322.5 "/>
<path style="fill:#CCCCCC;" d="M366,262.5h-30v90h45v-50.335C381,286.954,375.329,273.075,366,262.5z"/>
<polygon style="fill:#4F4F4F;" points="261,352.5 261,397.53 351,397.53 351,352.5 306,322.5 "/>
<path style="fill:#EBEBEB;" d="M351,302.165c0-15.211-5.671-29.09-15-39.665h-60c-9.329,10.575-15,24.454-15,39.665V352.5h90
	V302.165z"/>
<path d="M423.5,242.5c0-29.486-22.313-53.846-50.938-57.115C369.418,173.661,358.703,165,346,165h-50
	c-12.585,0-23.215,8.501-26.469,20.061H221c-20.875,0-38.27-15.132-41.824-35H246c4.142,0,7.5-3.357,7.5-7.5s-3.358-7.5-7.5-7.5
	h-7.5v-7.5c0-34.684-26.298-63.329-60-67.073v-7.927c0-4.143-3.358-7.5-7.5-7.5s-7.5,3.357-7.5,7.5v7.927
	c-33.702,3.744-60,32.389-60,67.073v7.5H96c-4.142,0-7.5,3.357-7.5,7.5s3.358,7.5,7.5,7.5h68.005c3.689,28.173,27.833,50,56.995,50
	h47.5v59.698c-9.693,11.988-15,26.935-15,42.406v95.365c0,4.143,3.358,7.5,7.5,7.5h22.5v84.064l-24.872,8.29
	c-3.93,1.31-6.053,5.558-4.744,9.487c1.048,3.143,3.974,5.13,7.114,5.13c0.786,0,1.586-0.125,2.373-0.387l30-10
	c3.062-1.021,5.128-3.887,5.128-7.115v-89.47h45v89.47c0,3.229,2.066,6.095,5.128,7.115l30,10c0.787,0.262,1.586,0.387,2.373,0.387
	c3.14,0,6.066-1.987,7.114-5.13c1.31-3.93-0.814-8.178-4.744-9.487l-24.872-8.29V405.03h22.5c4.142,0,7.5-3.357,7.5-7.5v-95.365
	c0-2.216-0.121-4.418-0.336-6.605C409.257,286.721,423.5,265.765,423.5,242.5z M118.5,127.561c0-28.948,23.551-52.5,52.5-52.5
	s52.5,23.552,52.5,52.5v7.5h-105C118.5,135.061,118.5,127.561,118.5,127.561z M279.539,270H320.4c0.198,0.016,0.397,0.03,0.6,0.03
	s0.401-0.015,0.6-0.03h40.861c7.134,9.183,11.039,20.478,11.039,32.165V345h-105v-42.835C268.5,290.478,272.405,279.183,279.539,270
	z M321,202.087L308.73,180h24.541L321,202.087z M358.5,192.5V255h-30v-35.526l21.549-38.788
	C354.958,182.374,358.5,187.026,358.5,192.5z M283.5,192.5c0-5.474,3.542-10.126,8.451-11.814l21.549,38.788V255h-30V192.5z
	 M268.5,390.03V360h105v30.03H268.5z M384.93,280.55c-2.539-7.502-6.384-14.55-11.43-20.791v-59.083
	c19.868,3.554,35,20.949,35,41.824C408.5,258.744,399.107,273.462,384.93,280.55z"/>
<path d="M321,150c28.949,0,52.5-23.552,52.5-52.5c0-20.964-12.356-39.09-30.165-47.499C348.097,44.689,351,37.678,351,30
	c0-16.542-13.458-30-30-30s-30,13.458-30,30c0,7.678,2.903,14.689,7.665,20.001C280.857,58.409,268.5,76.535,268.5,97.5
	C268.5,126.448,292.051,150,321,150z M306,30c0-8.271,6.729-15,15-15s15,6.729,15,15s-6.729,15-15,15S306,38.271,306,30z M321,60
	c20.678,0,37.5,16.822,37.5,37.5S341.678,135,321,135s-37.5-16.822-37.5-37.5S300.322,60,321,60z"/>
<g>
</g>
<g>
</g>
<g>
</g>
<g>
</g>
<g>
</g>
<g>
</g>
<g>
</g>
<g>
</g>
<g>
</g>
<g>
</g>
<g>
</g>
<g>
</g>
<g>
</g>
<g>
</g>
<g>
</g>
</svg>
