<?xml version="1.0" encoding="iso-8859-1"?>
<!-- Generator: Adobe Illustrator 19.0.0, SVG Export Plug-In . SVG Version: 6.00 Build 0)  -->
<svg version="1.1" id="Capa_1" xmlns="http://www.w3.org/2000/svg" xmlns:xlink="http://www.w3.org/1999/xlink" x="0px" y="0px"
	 viewBox="0 0 512.002 512.002" style="enable-background:new 0 0 512.002 512.002;" xml:space="preserve">
<path style="fill:#B3B3B3;" d="M171.001,67.53l30,75h30v-15C231.001,94.393,204.138,67.53,171.001,67.53z"/>
<path style="fill:#CCCCCC;" d="M171.001,67.53c-33.137,0-60,26.863-60,60v15h90v-15C201.001,94.393,187.57,67.53,171.001,67.53z"/>
<path style="fill:#60312C;" d="M351.001,15c-2.255,0-4.385,0.512-6.303,1.403C342.36,11.16,337.112,7.5,331.001,7.5
	c-3.847,0-7.345,1.461-10,3.842c-2.655-2.381-6.153-3.842-10-3.842c-6.111,0-11.359,3.66-13.697,8.903
	c-1.918-0.891-4.049-1.403-6.303-1.403c-8.284,0-15,6.716-15,15v67.5h90V30C366.001,21.716,359.285,15,351.001,15z"/>
<path style="fill:#A45E43;" d="M321.001,52.5v90c24.853,0,45-20.147,45-45S345.854,52.5,321.001,52.5z"/>
<path style="fill:#C27749;" d="M336.001,97.5c0-24.853-6.716-45-15-45c-24.853,0-45,20.147-45,45s20.147,45,45,45
	C329.285,142.5,336.001,122.353,336.001,97.5z"/>
<rect x="296" y="172.5" style="fill:#FFFFFF;" width="50" height="74.979"/>
<path style="fill:#4F4F4F;" d="M346.001,172.5l-25,44.989h-30l30,75.011h45v-100C366.001,181.454,357.047,172.5,346.001,172.5z"/>
<path style="fill:#696969;" d="M296.001,172.5c-11.046,0-20,8.954-20,20v100h45v-75.011L296.001,172.5z"/>
<polygon style="fill:#EBEBEB;" points="366.001,292.5 336.001,292.5 316.001,337.5 336.001,382.5 366.001,382.5 "/>
<rect x="276" y="292.5" style="fill:#FFFFFF;" width="60" height="90"/>
<path d="M321.001,150c28.949,0,52.5-23.552,52.5-52.5V30c0-12.406-10.093-22.5-22.5-22.5c-1.029,0-2.05,0.069-3.058,0.209
	C343.736,2.895,337.589,0,331.001,0c-3.499,0-6.915,0.816-10,2.354C317.916,0.816,314.5,0,311.001,0
	c-6.589,0-12.735,2.894-16.942,7.709c-1.008-0.14-2.028-0.209-3.058-0.209c-12.407,0-22.5,10.094-22.5,22.5v67.5
	C268.501,126.448,292.052,150,321.001,150z M283.501,30c0-4.136,3.364-7.5,7.5-7.5c1.08,0,2.138,0.237,3.146,0.705
	c1.822,0.846,3.907,0.926,5.789,0.221c1.881-0.704,3.401-2.134,4.219-3.969C305.363,16.75,308.05,15,311.002,15
	c1.835,0,3.608,0.684,4.993,1.926c2.849,2.555,7.165,2.555,10.014,0c1.385-1.242,3.158-1.926,4.993-1.926
	c2.952,0,5.64,1.75,6.847,4.457c0.818,1.835,2.338,3.265,4.219,3.969c1.882,0.705,3.966,0.625,5.789-0.221
	c1.008-0.468,2.066-0.705,3.145-0.705c4.136,0,7.5,3.364,7.5,7.5v30.808C348.964,51.063,335.68,45,321.001,45
	s-27.963,6.063-37.5,15.808V30z M321.001,60c20.678,0,37.5,16.822,37.5,37.5s-16.822,37.5-37.5,37.5s-37.5-16.822-37.5-37.5
	S300.323,60,321.001,60z"/>
<path d="M366.001,390c4.142,0,7.5-3.357,7.5-7.5v-82.975c28.172-3.688,50-27.832,50-56.995c0-29.483-22.308-53.841-50.93-57.113
	c-3.082-11.55-13.51-20.125-25.953-20.401c-0.139-0.007-0.278-0.012-0.417-0.01c-0.067,0-0.134-0.005-0.201-0.005h-49.74
	c-0.033,0-0.066,0-0.099,0h-0.16c-12.574,0-23.197,8.487-26.46,20.03h-48.54c-20.875,0-38.27-15.132-41.824-35h66.824
	c4.142,0,7.5-3.357,7.5-7.5s-3.358-7.5-7.5-7.5h-7.5v-7.5c0-34.684-26.298-63.329-60-67.073V52.53c0-4.143-3.358-7.5-7.5-7.5
	s-7.5,3.357-7.5,7.5v7.927c-33.702,3.744-60,32.389-60,67.073v7.5h-7.5c-4.142,0-7.5,3.357-7.5,7.5s3.358,7.5,7.5,7.5h68.005
	c3.689,28.173,27.833,50,56.995,50h47.5V382.5c0,4.143,3.358,7.5,7.5,7.5h7.25v99.095l-24.872,8.29
	c-3.93,1.31-6.053,5.558-4.744,9.487c1.048,3.143,3.974,5.13,7.114,5.13c0.786,0,1.586-0.125,2.373-0.387l30-10
	c3.062-1.021,5.128-3.887,5.128-7.115V390h45.5v104.5c0,3.229,2.066,6.095,5.128,7.115l30,10c0.787,0.262,1.586,0.387,2.373,0.387
	c3.14,0,6.066-1.987,7.114-5.13c1.31-3.93-0.814-8.178-4.744-9.487l-24.872-8.29V390H366.001z M118.501,127.53
	c0-28.948,23.551-52.5,52.5-52.5s52.5,23.552,52.5,52.5v7.5h-105C118.501,135.03,118.501,127.53,118.501,127.53z M283.501,375
	v-74.97h75V375H283.501z M321.066,202.057L308.935,180h24.507L321.066,202.057z M408.501,242.53c0,20.875-15.132,38.27-35,41.824
	v-83.647C393.369,204.26,408.501,221.656,408.501,242.53z M358.501,192.5v92.53h-30v-65.57l21.721-38.711
	C355.041,182.486,358.501,187.09,358.501,192.5z M283.501,192.5c0-5.55,3.638-10.26,8.652-11.888l21.348,38.814v65.604h-30V192.5z"
	/>
<g>
</g>
<g>
</g>
<g>
</g>
<g>
</g>
<g>
</g>
<g>
</g>
<g>
</g>
<g>
</g>
<g>
</g>
<g>
</g>
<g>
</g>
<g>
</g>
<g>
</g>
<g>
</g>
<g>
</g>
</svg>
