<?xml version="1.0" encoding="iso-8859-1"?>
<!-- Generator: Adobe Illustrator 19.0.0, SVG Export Plug-In . SVG Version: 6.00 Build 0)  -->
<svg version="1.1" id="Capa_1" xmlns="http://www.w3.org/2000/svg" xmlns:xlink="http://www.w3.org/1999/xlink" x="0px" y="0px"
	 viewBox="0 0 512.001 512.001" style="enable-background:new 0 0 512.001 512.001;" xml:space="preserve">
<g>
	<g>
		<path d="M423.501,242.5c0-29.486-22.313-53.846-50.938-57.115C369.418,173.661,358.704,165,346.001,165h-50
			c-12.585,0-23.215,8.501-26.469,20.061h-48.531c-20.875,0-38.27-15.132-41.824-35h66.824c4.142,0,7.5-3.357,7.5-7.5
			s-3.358-7.5-7.5-7.5h-7.5v-7.5c0-34.684-26.298-63.329-60-67.073v-7.927c0-4.143-3.358-7.5-7.5-7.5c-4.142,0-7.5,3.357-7.5,7.5
			v7.927c-33.702,3.744-60,32.389-60,67.073v7.5h-7.5c-4.142,0-7.5,3.357-7.5,7.5s3.358,7.5,7.5,7.5h68.005
			c3.689,28.173,27.833,50,56.995,50h47.5v59.698c-9.693,11.988-15,26.935-15,42.406v95.365c0,4.143,3.358,7.5,7.5,7.5h22.5v84.064
			l-24.872,8.29c-3.93,1.31-6.053,5.558-4.744,9.487c1.048,3.143,3.974,5.13,7.114,5.13c0.786,0,1.586-0.125,2.373-0.387l30-10
			c3.062-1.021,5.128-3.887,5.128-7.115v-89.47h45v89.47c0,3.229,2.066,6.095,5.128,7.115l30,10
			c0.787,0.262,1.586,0.387,2.373,0.387c3.14,0,6.066-1.987,7.114-5.13c1.31-3.93-0.814-8.178-4.744-9.487l-24.872-8.29V405.03h22.5
			c4.142,0,7.5-3.357,7.5-7.5v-95.365c0-2.216-0.121-4.418-0.336-6.605C409.257,286.721,423.501,265.765,423.501,242.5z
			 M118.5,135.061v-7.5c0-28.948,23.551-52.5,52.5-52.5c28.949,0,52.5,23.552,52.5,52.5v7.5H118.5z M350.049,180.686
			c4.909,1.688,8.451,6.34,8.451,11.814V255h-30v-35.526L350.049,180.686z M333.27,180l-12.27,22.087L308.73,180H333.27z
			 M283.501,192.5c0-5.474,3.542-10.126,8.451-11.814l21.549,38.788V255h-30V192.5z M373.501,390.03h-105V360h105V390.03z
			 M373.501,345h-105v-42.835c0-11.687,3.905-22.982,11.039-32.165H320.4c0.198,0.016,0.397,0.03,0.6,0.03s0.401-0.015,0.6-0.03
			h40.861c7.134,9.183,11.039,20.478,11.039,32.165V345z M384.931,280.55c-2.539-7.502-6.384-14.55-11.43-20.791v-59.083
			c19.868,3.554,35,20.949,35,41.824C408.501,258.744,399.108,273.462,384.931,280.55z"/>
	</g>
</g>
<g>
	<g>
		<path d="M343.335,50.001c4.762-5.312,7.665-12.323,7.665-20.001c0-16.542-13.458-30-30-30s-30,13.458-30,30
			c0,7.678,2.903,14.689,7.665,20.001c-17.808,8.408-30.165,26.534-30.165,47.499c0,28.948,23.551,52.5,52.5,52.5
			c28.949,0,52.5-23.552,52.5-52.5C373.501,76.536,361.145,58.41,343.335,50.001z M321.001,15c8.271,0,15,6.729,15,15
			s-6.729,15-15,15s-15-6.729-15-15S312.73,15,321.001,15z M321.001,135c-20.678,0-37.5-16.822-37.5-37.5s16.822-37.5,37.5-37.5
			c20.678,0,37.5,16.822,37.5,37.5S341.678,135,321.001,135z"/>
	</g>
</g>
<g>
</g>
<g>
</g>
<g>
</g>
<g>
</g>
<g>
</g>
<g>
</g>
<g>
</g>
<g>
</g>
<g>
</g>
<g>
</g>
<g>
</g>
<g>
</g>
<g>
</g>
<g>
</g>
<g>
</g>
</svg>
